<?xml version="1.0" standalone="no"?>
<!DOCTYPE svg PUBLIC "-//W3C//DTD SVG 20010904//EN"
 "http://www.w3.org/TR/2001/REC-SVG-20010904/DTD/svg10.dtd">
<svg version="1.0" xmlns="http://www.w3.org/2000/svg"
 width="901.000000pt" height="901.000000pt" viewBox="0 0 901.000000 901.000000"
 preserveAspectRatio="xMidYMid meet">
<metadata>
Created by potrace 1.14, written by Peter Selinger 2001-2017
</metadata>
<g transform="translate(0.000000,901.000000) scale(0.100000,-0.100000)"
fill="#000000" stroke="none">
<path d="M3168 8083 c-21 -24 -31 -106 -15 -123 9 -10 9 -14 -2 -17 -7 -3 -23
-15 -35 -27 -19 -19 -32 -21 -136 -21 -63 0 -124 4 -135 9 -42 18 -129 13
-203 -11 -52 -16 -96 -23 -156 -23 -109 0 -118 -15 -49 -76 56 -50 52 -59 -32
-88 -27 -10 -59 -21 -70 -26 -11 -4 -28 -11 -37 -14 -30 -9 -9 -34 45 -52 29
-9 56 -20 62 -25 5 -5 17 -9 27 -9 10 0 18 -4 18 -10 0 -5 9 -10 19 -10 11 0
23 -4 26 -10 3 -5 16 -10 29 -10 32 0 39 -10 21 -30 -14 -15 -13 -20 6 -44 18
-22 19 -31 10 -54 -6 -15 -12 -63 -15 -107 -2 -44 -8 -91 -13 -105 -5 -14 -11
-50 -12 -80 -2 -30 -7 -62 -12 -72 -5 -9 -9 -39 -9 -66 0 -27 -4 -62 -10 -78
-10 -31 -21 -129 -20 -180 1 -38 -16 -84 -29 -84 -6 0 -8 6 -5 14 3 8 1 17 -5
21 -6 3 -11 -1 -11 -9 0 -20 -18 -30 -33 -17 -17 14 -97 -7 -97 -25 0 -8 -11
-14 -26 -14 -23 0 -26 3 -22 25 5 23 2 25 -27 25 -24 0 -37 7 -49 25 -19 28
-22 70 -4 59 7 -4 8 -3 4 4 -4 7 -18 12 -31 12 -22 0 -24 3 -22 55 2 65 -15
88 -68 89 -45 2 -61 27 -68 107 -1 13 -7 15 -40 7 -44 -10 -69 2 -119 53 -14
15 -35 30 -45 33 -10 3 -39 25 -65 48 -26 24 -79 65 -118 93 -38 27 -70 53
-70 56 0 4 -9 11 -20 14 -16 5 -20 15 -20 55 0 65 -7 80 -39 80 -24 0 -79 -29
-57 -30 14 0 -26 -40 -41 -40 -7 0 -13 -6 -14 -12 0 -7 -34 -38 -76 -68 -42
-30 -85 -63 -96 -72 -11 -10 -23 -18 -26 -18 -3 0 -22 -14 -41 -31 -19 -17
-53 -42 -75 -57 -22 -14 -61 -45 -87 -69 -30 -27 -63 -46 -92 -54 -25 -6 -46
-15 -46 -19 0 -4 10 -20 22 -35 17 -21 19 -31 10 -45 -6 -9 -11 -53 -11 -96
-1 -87 -4 -111 -15 -135 -4 -9 -6 -20 -5 -25 5 -27 -3 -44 -20 -44 -11 0 -21
6 -24 13 -2 6 -3 3 -1 -8 2 -11 4 -39 4 -62 0 -28 4 -43 13 -43 8 0 11 -14 9
-45 -2 -25 -7 -45 -11 -45 -4 0 -7 -17 -6 -37 0 -21 -3 -65 -7 -98 -5 -33 -10
-82 -13 -110 -3 -27 -7 -63 -9 -80 -16 -112 -19 -131 -23 -137 -2 -5 -6 -41
-8 -80 -2 -40 -5 -82 -8 -93 -3 -11 -6 -26 -6 -32 -1 -15 -71 -18 -71 -3 0 15
-26 12 -39 -4 -9 -11 -8 -17 4 -29 8 -9 15 -21 15 -27 0 -6 16 -20 35 -32 20
-11 35 -28 34 -37 -1 -9 0 -18 1 -21 1 -3 4 -23 6 -45 2 -22 6 -60 8 -85 3
-25 8 -110 11 -190 3 -80 9 -189 13 -243 4 -55 4 -101 0 -103 -3 -2 -53 -3
-110 -3 -57 1 -112 -3 -123 -8 -48 -26 -73 -33 -120 -35 -63 -4 -69 -23 -21
-71 20 -18 36 -37 36 -40 0 -7 -83 -47 -98 -47 -7 0 -12 -8 -12 -19 0 -12 13
-25 38 -36 20 -9 54 -25 75 -36 29 -14 58 -19 127 -18 64 0 95 -4 111 -14 12
-9 28 -13 35 -10 22 8 17 -4 -26 -58 -22 -28 -40 -55 -40 -61 0 -5 -6 -15 -12
-22 -7 -8 -20 -24 -28 -36 -8 -13 -25 -35 -37 -50 -13 -15 -23 -33 -23 -39 0
-8 -11 -10 -35 -5 -34 6 -41 1 -36 -28 0 -4 -6 -5 -14 -2 -8 4 -31 3 -50 0
-38 -8 -52 -34 -35 -66 13 -24 30 -26 30 -4 0 19 24 13 28 -7 1 -8 -8 -19 -20
-24 -13 -6 -23 -17 -24 -25 -2 -34 -5 -39 -24 -45 -12 -4 -20 -14 -19 -23 3
-34 -1 -44 -16 -38 -10 4 -14 -1 -12 -17 1 -16 -4 -23 -20 -25 -21 -3 -42 -32
-23 -32 6 0 10 5 10 10 0 16 26 12 42 -7 11 -13 13 -25 7 -40 -10 -27 -15 -28
-37 -6 -16 16 -17 15 -23 -13 -7 -38 7 -55 37 -48 29 7 30 -3 5 -34 -12 -13
-25 -20 -35 -16 -11 4 -16 1 -16 -10 0 -10 -9 -16 -22 -16 -13 0 -34 -3 -47
-7 -20 -5 -22 -10 -18 -39 5 -28 3 -34 -12 -34 -14 0 -17 -6 -13 -31 3 -21 1
-30 -6 -25 -6 3 -9 -1 -8 -11 3 -20 62 -48 71 -33 3 6 -1 10 -9 10 -10 0 -16
9 -16 25 0 21 4 24 34 23 31 -1 34 -4 41 -42 20 -121 23 -172 11 -198 -6 -14
-3 -18 13 -18 17 0 21 -6 21 -36 0 -27 -4 -35 -14 -31 -22 9 -26 -38 -5 -51
20 -13 15 -50 -10 -69 -14 -11 -12 -12 11 -13 24 0 53 -29 51 -50 0 -3 1 -9 3
-15 1 -5 5 -33 7 -62 2 -38 0 -54 -10 -57 -17 -7 -23 8 -33 77 -4 28 -8 42 -9
31 0 -12 -7 -24 -15 -27 -14 -6 -15 -85 -1 -148 4 -17 2 -29 -3 -29 -24 0 2
-38 28 -42 25 -4 29 -1 32 24 4 24 2 27 -14 22 -14 -4 -18 0 -18 20 0 32 10
33 44 1 26 -24 35 -55 15 -55 -5 0 -7 -5 -4 -10 4 -6 21 -8 40 -4 31 5 34 4
45 -31 7 -21 10 -53 7 -72 -9 -50 6 -73 48 -73 28 0 34 -4 39 -28 4 -15 27
-48 51 -74 43 -44 44 -47 26 -60 -34 -24 -31 -84 4 -100 24 -11 24 -13 10 -34
-22 -34 -20 -109 4 -133 23 -23 80 -35 100 -22 19 13 18 89 -1 129 -25 48 -7
56 38 17 16 -14 39 -28 52 -31 12 -4 22 -10 22 -15 0 -5 3 -8 8 -8 31 5 52 -3
52 -21 0 -22 -36 -36 -67 -26 -10 3 -25 1 -33 -4 -11 -7 -6 -10 21 -10 36 0
66 -20 51 -34 -4 -4 -2 -7 3 -6 21 4 55 -13 48 -24 -4 -6 1 -5 10 2 9 8 20 11
26 8 5 -4 7 3 4 15 -8 28 4 23 61 -25 25 -21 43 -43 39 -49 -3 -5 -1 -7 4 -4
6 4 15 1 21 -6 14 -16 20 -247 7 -247 -19 0 -34 16 -34 35 1 11 -3 50 -7 88
-6 58 -5 67 10 67 21 0 20 6 -4 30 l-20 20 0 -40 c0 -34 -3 -40 -21 -40 -19 0
-20 -4 -16 -47 2 -27 8 -58 12 -70 6 -19 4 -23 -12 -23 -13 0 -19 -7 -18 -24
0 -28 9 -39 31 -42 9 -1 13 0 10 4 -6 5 65 31 87 32 4 0 8 -10 8 -22 1 -19 2
-20 6 -5 4 14 10 17 26 12 12 -3 50 -9 85 -12 34 -3 65 -10 68 -14 3 -5 34 -9
69 -9 35 0 76 -5 92 -11 15 -6 63 -13 106 -15 43 -2 86 -8 97 -14 10 -5 28
-10 39 -10 12 0 21 -4 21 -10 0 -5 14 -10 30 -10 36 0 43 -29 8 -32 -13 0 -30
-2 -38 -2 -12 -1 -14 -13 -11 -61 3 -61 13 -78 38 -68 10 4 11 9 4 16 -6 6
-11 19 -11 29 0 14 8 18 40 18 32 0 40 -4 40 -18 0 -15 6 -17 35 -14 27 3 35
9 35 24 0 15 5 19 20 15 11 -3 18 -1 14 4 -18 30 27 26 121 -12 11 -4 37 -15
57 -23 20 -8 48 -13 63 -12 14 2 32 -2 38 -8 7 -6 30 -13 51 -15 22 -1 50 -7
63 -12 14 -5 44 -9 68 -9 44 0 68 -16 46 -29 -8 -5 -9 -26 -5 -64 l7 -57 41 0
c22 0 78 -3 124 -7 79 -6 82 -5 82 16 0 16 6 21 25 21 14 0 25 -4 25 -9 0 -5
14 -11 30 -13 24 -4 30 -1 30 13 0 10 8 20 18 22 9 3 -10 5 -44 6 -33 0 -64 4
-68 8 -3 4 -19 7 -34 8 -94 4 -102 5 -102 20 0 11 -12 15 -50 15 -37 0 -50 4
-50 15 0 11 11 13 43 11 23 -1 49 -5 57 -9 8 -3 44 -8 79 -12 36 -3 68 -8 72
-10 4 -3 40 -7 80 -10 41 -3 78 -10 83 -15 6 -6 18 -10 29 -10 29 0 117 -31
117 -42 0 -5 4 -7 9 -4 5 4 22 1 38 -6 15 -6 35 -12 43 -13 9 -1 25 -7 37 -14
12 -6 40 -11 62 -11 23 0 41 -4 41 -9 0 -12 -63 -51 -83 -51 -18 0 -27 -21
-27 -61 0 -22 5 -29 20 -29 13 0 20 7 20 19 0 20 18 31 51 31 11 0 19 7 19 16
0 11 6 15 19 11 12 -3 18 1 17 12 -1 13 7 15 39 14 22 -2 41 -7 43 -13 2 -5
12 -10 23 -10 13 0 19 -7 20 -22 1 -19 2 -20 6 -5 4 14 11 17 26 13 12 -3 30
-6 41 -6 12 0 16 -5 12 -15 -5 -13 0 -15 28 -9 19 3 49 1 68 -4 18 -6 70 -22
114 -36 45 -14 89 -26 99 -26 10 0 28 -12 41 -26 21 -22 31 -25 70 -21 24 2
47 0 50 -4 2 -4 25 -11 49 -15 25 -3 45 -10 45 -15 0 -5 16 -9 35 -9 19 0 35
-4 35 -8 0 -4 15 -9 32 -10 18 -2 37 -7 42 -12 6 -6 16 -10 24 -10 8 0 28 -6
45 -14 29 -12 107 -31 162 -39 27 -3 25 -31 -2 -35 -33 -5 -41 -42 -13 -64 13
-10 26 -16 29 -12 3 4 0 9 -6 11 -7 3 -13 16 -13 29 0 19 5 24 25 24 16 0 25
-6 25 -16 0 -9 5 -12 12 -8 6 4 16 1 22 -7 6 -8 24 -20 39 -27 16 -7 31 -21
34 -32 6 -23 5 -23 37 -9 26 12 25 39 -1 39 -9 0 -13 8 -11 23 3 19 8 22 38
19 19 -2 37 -8 38 -13 2 -5 17 -9 32 -9 33 0 49 -18 29 -31 -11 -7 -10 -9 5
-9 12 0 16 -5 12 -15 -4 -12 4 -15 44 -15 35 0 50 4 50 13 0 10 23 12 102 10
56 -2 105 -8 108 -13 4 -6 54 -12 111 -13 101 -3 105 -2 104 18 -1 14 -10 21
-28 23 -53 6 -22 44 47 57 29 6 36 4 36 -8 0 -10 -11 -17 -27 -19 -39 -4 -42
-28 -4 -28 24 0 31 -4 31 -19 0 -14 9 -20 33 -22 63 -7 75 -1 79 40 2 21 0 49
-3 62 -6 22 -10 19 -13 -13 -2 -23 -41 -15 -44 10 -2 12 2 22 8 22 6 0 10 8 8
17 -2 10 5 19 16 21 30 6 206 120 245 158 13 13 29 24 36 24 7 0 16 7 19 16 3
8 10 12 16 9 5 -3 10 -1 10 6 0 14 30 38 49 39 7 0 11 -6 8 -14 -7 -18 15 -37
42 -37 12 1 30 1 41 2 14 0 20 7 20 25 0 19 5 24 25 24 18 0 25 5 25 19 0 10
9 21 19 24 30 8 35 107 5 107 -8 0 -14 7 -14 16 0 16 9 29 91 132 25 31 60 82
77 113 37 65 56 84 76 76 8 -3 17 0 19 7 4 10 -1 12 -14 9 -24 -7 -24 1 0 41
10 17 24 49 31 71 7 22 20 51 29 65 9 13 15 25 14 27 -4 4 8 3 32 -2 11 -3 36
-7 55 -10 19 -2 58 -8 85 -13 61 -11 154 -8 215 8 24 6 53 9 62 6 10 -2 16 0
13 4 -3 5 10 12 30 16 19 3 35 10 35 15 0 5 9 9 20 9 24 0 26 -16 4 -38 -15
-15 -14 -17 17 -28 44 -16 56 -17 41 -2 -19 19 -15 48 8 48 13 0 20 7 20 20 0
14 7 20 23 20 12 0 31 7 41 15 11 8 28 15 38 15 16 0 18 -5 12 -37 -8 -47 -7
-46 -49 -47 -19 -1 -35 -4 -35 -7 0 -18 30 -27 71 -22 l46 5 2 71 c1 40 4 73
6 75 2 2 18 6 37 9 18 2 34 8 36 13 2 4 12 18 22 30 23 27 54 23 58 -8 4 -25
17 -29 26 -7 3 9 -1 18 -9 21 -17 7 -20 35 -5 50 8 8 23 100 23 144 0 42 -16
114 -28 126 -14 14 -10 44 5 44 9 0 5 85 -6 138 -5 25 -12 32 -29 32 -34 0
-55 -10 -55 -27 0 -8 4 -11 10 -8 6 4 10 -5 10 -19 0 -21 -4 -25 -25 -24 -14
1 -25 9 -25 17 0 11 -3 12 -11 4 -8 -8 -22 -8 -52 3 -26 9 -53 12 -76 7 -54
-11 -54 -11 -87 9 -28 16 -33 16 -38 3 -3 -9 -19 -15 -38 -16 -18 0 -27 -3
-20 -6 6 -2 12 -11 12 -19 0 -16 -37 -19 -60 -4 -17 11 -30 -4 -30 -36 0 -22
-17 -34 -46 -34 -9 0 -12 4 -9 10 7 12 -32 12 -60 0 -17 -7 -17 -9 -2 -9 9 -1
17 -8 17 -16 0 -8 9 -15 20 -15 21 0 28 -29 8 -31 -26 -3 -43 3 -51 17 -4 7
-24 29 -45 49 -30 28 -34 37 -23 44 9 6 22 6 34 -1 24 -12 125 23 177 61 42
31 105 61 131 61 10 0 21 5 24 10 3 6 15 10 26 10 10 0 27 4 37 9 21 11 115
42 136 45 9 1 19 5 22 9 11 10 49 8 60 -3 10 -10 44 -3 99 20 11 5 35 14 53
22 20 8 32 20 32 31 0 11 9 21 20 24 15 4 20 14 20 39 0 18 -5 36 -11 40 -13
7 24 25 91 44 50 14 90 27 135 45 17 7 48 17 70 24 22 7 63 21 90 31 28 10 91
31 140 46 50 15 94 31 100 36 5 4 17 8 26 8 10 0 32 8 51 17 63 31 68 33 96
33 15 0 32 4 38 10 5 5 18 11 29 13 11 2 27 7 35 10 8 3 38 13 65 23 28 9 54
21 60 26 5 4 18 8 30 8 12 0 25 4 31 8 5 5 29 14 54 21 25 7 61 19 80 26 102
36 137 48 160 53 14 2 30 8 35 12 6 3 37 15 70 25 79 25 85 31 85 76 0 29 -5
39 -21 44 -26 9 -81 -1 -133 -25 -23 -9 -81 -30 -131 -44 -87 -26 -120 -38
-157 -57 -10 -5 -23 -9 -29 -9 -16 0 -5 25 12 26 8 1 25 5 37 9 l24 8 -28 23
c-36 31 -52 30 -96 -6 -31 -26 -36 -34 -29 -54 12 -29 -9 -39 -184 -96 -71
-23 -143 -47 -160 -55 -25 -10 -108 -38 -125 -41 -3 0 -12 -3 -20 -7 -8 -3
-37 -13 -65 -22 -27 -10 -59 -21 -70 -25 -54 -23 -65 -22 -65 3 0 38 -58 51
-96 22 -10 -8 -23 -15 -27 -15 -4 0 -34 26 -65 58 -32 31 -73 70 -92 86 -19
15 -116 105 -215 200 -99 94 -216 205 -260 247 -229 217 -304 289 -361 344
-34 33 -80 77 -103 97 -22 21 -41 42 -41 48 0 5 -4 10 -8 10 -5 0 -31 21 -58
47 -37 35 -45 48 -33 51 21 4 29 54 17 102 -19 76 -31 109 -39 104 -5 -3 -9 2
-9 10 0 9 -4 16 -10 16 -5 0 -10 9 -10 19 0 11 -10 27 -21 35 -18 12 -21 22
-16 50 5 34 4 36 -21 37 -33 1 -62 6 -68 12 -3 2 -7 22 -10 43 -3 22 -8 56
-11 77 -3 21 -11 37 -18 37 -7 0 -43 29 -79 65 -53 53 -66 71 -68 100 -1 22
-7 34 -13 31 -7 -2 -16 -1 -21 2 -14 10 -34 50 -34 67 0 8 6 15 13 16 6 0 2 4
-11 10 -18 7 -23 15 -21 36 4 37 -8 54 -34 50 -12 -2 -30 4 -39 15 -10 10 -15
19 -10 19 4 1 12 2 17 4 6 1 15 3 22 3 21 3 26 42 7 63 -9 10 -22 19 -29 19
-18 0 -48 37 -40 49 8 13 38 9 58 -7 12 -10 16 -9 20 8 3 11 13 20 25 20 11 0
20 6 19 13 -1 46 4 57 28 57 19 0 25 5 26 23 5 171 6 306 0 314 -3 5 -14 12
-23 16 -12 4 -18 17 -18 36 0 34 -23 61 -50 61 -39 0 -76 73 -79 152 -1 10
-14 30 -30 45 -18 18 -28 37 -27 53 1 14 -1 30 -6 36 -4 6 -9 23 -10 38 -2 21
-9 29 -28 33 -36 7 -70 60 -70 111 0 22 -5 44 -11 47 -6 4 -10 19 -9 33 1 15
2 46 1 70 -1 35 -4 42 -21 42 -13 0 -20 7 -20 18 0 11 -15 27 -37 39 -21 11
-37 25 -35 31 1 7 -2 12 -8 12 -6 0 -9 3 -8 8 1 4 -4 18 -12 32 -8 14 -15 32
-16 40 -16 100 -17 95 18 111 55 24 45 47 -42 89 -8 4 -14 15 -14 23 1 9 -4
13 -11 11 -7 -3 -15 2 -18 10 -4 9 -13 16 -22 16 -8 0 -15 7 -15 15 0 8 -4 15
-9 15 -25 0 -421 372 -421 396 0 7 8 23 17 33 22 26 24 42 8 88 -12 35 -17 38
-53 41 -26 2 -43 -3 -52 -13 -7 -8 -10 -15 -6 -15 4 0 -1 -11 -10 -25 -9 -14
-22 -25 -28 -24 -30 4 -35 -2 -31 -34 4 -30 -2 -39 -77 -107 -44 -41 -90 -83
-102 -93 -57 -48 -164 -146 -195 -180 -33 -36 -76 -62 -93 -59 -12 3 -9 -19 6
-53 9 -21 10 -38 3 -55 -5 -14 -11 -43 -13 -65 -2 -21 -8 -42 -12 -45 -4 -3
-7 -15 -6 -27 1 -13 -5 -35 -13 -50 -8 -16 -14 -29 -14 -30 6 -22 -2 -63 -12
-63 -9 0 -12 -9 -10 -27 3 -16 -5 -66 -17 -113 -12 -47 -24 -101 -27 -120 -4
-28 -12 -38 -39 -51 -35 -17 -41 -11 -24 22 8 14 8 21 -2 24 -16 6 -22 45 -7
45 5 0 9 11 9 25 0 18 5 25 20 25 17 0 20 7 20 49 0 27 3 57 6 66 5 13 2 16
-12 13 -10 -2 -17 -11 -15 -19 2 -8 6 -31 8 -51 5 -36 4 -38 -21 -38 -21 0
-26 5 -26 25 0 22 -3 25 -25 19 -19 -5 -30 0 -45 17 -10 13 -19 32 -20 41 0 9
-7 23 -15 32 -9 8 -15 17 -14 18 2 2 -3 24 -9 50 -13 51 -12 69 2 80 6 4 -2
10 -16 13 -34 9 -37 19 -27 80 12 73 11 75 -16 75 -52 0 -75 108 -25 120 14 3
25 11 24 18 -1 7 -2 18 -2 26 -1 8 -17 19 -35 25 -20 7 -62 42 -107 92 -41 44
-91 97 -110 118 -19 20 -91 97 -160 170 -69 74 -131 140 -137 147 -7 7 -13 16
-13 19 0 4 -10 15 -21 24 -19 15 -20 20 -9 41 10 19 10 24 -4 32 -9 5 -16 21
-16 36 0 37 -10 48 -46 56 -22 5 -34 2 -46 -11z m174 -292 c10 -14 18 -22 18
-18 0 5 19 -13 42 -40 47 -55 106 -119 196 -212 73 -76 90 -101 68 -101 -8 0
-18 5 -22 11 -5 8 -9 7 -14 -1 -8 -13 -58 -22 -115 -22 -44 0 -146 19 -156 29
-5 5 -10 29 -11 54 -3 41 -5 45 -25 41 -14 -3 -23 1 -23 8 0 7 -6 10 -12 7 -7
-2 -22 -1 -33 3 -20 8 -21 15 -19 181 2 96 3 176 3 178 1 6 83 -88 103 -118z
m-195 -213 c-3 -20 -4 -21 -11 -5 -5 9 -5 29 0 45 7 25 8 26 11 5 3 -13 3 -33
0 -45z m1652 48 c8 -9 9 -21 4 -33 -5 -10 -9 -44 -8 -75 1 -40 -3 -58 -11 -58
-7 0 -16 9 -19 20 -4 13 -15 20 -31 20 -14 0 -27 7 -30 15 -10 25 -34 -9 -34
-48 0 -41 -27 -59 -47 -31 -11 15 -14 14 -30 -15 -12 -21 -24 -30 -36 -27 -9
2 -15 1 -12 -4 7 -11 -62 -70 -83 -70 -9 0 -27 -16 -39 -35 -16 -24 -28 -33
-39 -28 -12 4 7 28 78 95 51 49 105 95 121 104 15 8 27 18 27 22 0 13 44 57
97 96 29 22 54 45 57 53 7 17 21 17 35 -1z m184 -168 c16 -12 53 -46 83 -74
30 -28 69 -62 87 -74 17 -13 47 -40 65 -61 l33 -38 -34 -9 c-20 -6 -50 -7 -69
-3 -18 4 -43 3 -54 -2 -17 -7 -26 -5 -42 11 -26 26 -42 56 -42 79 0 11 -12 23
-30 30 -20 8 -30 18 -30 32 0 17 6 21 30 21 21 0 30 5 30 16 0 8 -5 12 -10 9
-6 -3 -18 2 -28 11 -16 17 -17 17 -20 -4 -4 -25 -6 -26 -33 -11 -11 5 -17 14
-14 20 4 5 -4 9 -15 9 -16 0 -20 4 -16 16 3 9 6 39 6 67 l0 51 38 -36 c20 -20
50 -47 65 -60z m-2263 73 c0 -11 -38 -21 -56 -14 -8 3 -11 9 -8 14 7 12 64 12
64 0z m-1365 -249 c0 -37 -1 -39 -34 -40 -40 -2 -45 -6 -46 -35 0 -15 -6 -22
-17 -21 -10 1 -15 -2 -12 -7 3 -5 -2 -9 -10 -9 -9 0 -16 -7 -16 -15 0 -10 -10
-15 -27 -15 -23 0 -25 -13 -2 -16 5 -1 14 -2 19 -3 6 0 10 -12 10 -26 0 -22
-4 -24 -35 -23 -22 1 -35 6 -35 15 0 7 -4 13 -10 13 -5 0 -10 -7 -10 -16 0 -8
-4 -13 -9 -9 -5 3 -15 -1 -23 -8 -19 -18 -68 -18 -68 0 0 8 9 17 20 20 11 3
20 9 20 13 0 3 26 24 58 46 31 21 66 48 77 59 29 29 95 77 95 69 0 -4 9 5 21
20 28 35 34 33 34 -12z m216 -82 c4 0 6 -9 4 -19 -2 -13 1 -18 10 -15 7 3 32
-6 55 -21 34 -21 39 -29 30 -41 -19 -22 -60 -18 -60 6 0 13 -5 17 -14 14 -9
-4 -15 -25 -18 -59 -1 -29 0 -51 5 -48 4 2 7 11 7 19 0 9 11 14 30 14 27 0 30
-3 30 -30 0 -16 -4 -30 -9 -30 -4 0 -6 -10 -4 -23 4 -19 0 -23 -23 -25 -15 -1
-32 -7 -39 -12 -9 -7 -16 -6 -25 5 -7 8 -26 15 -42 15 -29 0 -29 1 -27 43 2
24 0 48 -4 54 -4 7 -8 24 -8 40 0 15 -3 68 -5 117 l-6 89 52 -46 c29 -26 56
-47 61 -47z m2214 81 c10 -17 -12 -21 -25 -6 -10 12 -10 15 3 15 9 0 18 -4 22
-9z m-2429 -59 c-3 -5 1 -20 9 -35 16 -32 13 -112 -6 -156 -12 -28 -17 -32
-43 -27 -16 4 -31 8 -34 10 -9 10 10 44 28 49 12 3 20 14 20 27 0 12 4 18 11
15 6 -4 5 2 -3 14 -10 16 -10 25 -1 40 10 16 9 18 -8 14 -15 -4 -19 0 -19 19
0 14 3 28 7 31 9 10 45 9 39 -1z m1283 -11 c8 -5 12 -19 9 -35 -3 -15 -1 -26
6 -27 19 0 59 -59 59 -85 0 -17 7 -29 23 -36 24 -11 41 -38 23 -38 -14 0 -114
-108 -183 -198 -11 -15 -25 -30 -30 -34 -14 -9 -28 1 -20 14 4 6 8 25 10 42 3
30 15 110 19 132 2 6 6 36 9 66 4 31 8 64 10 74 2 11 7 45 10 77 8 58 20 70
55 48z m-913 -136 c15 -14 31 -25 35 -25 17 0 49 -35 49 -52 0 -21 -20 -20
-65 3 -16 9 -38 14 -47 12 -15 -4 -18 3 -18 41 0 53 8 56 46 21z m2590 -87
c13 -38 15 -51 15 -87 0 -19 4 -40 10 -47 6 -7 9 -18 9 -26 -4 -27 13 -58 31
-58 30 0 22 -13 -26 -43 -25 -16 -45 -33 -45 -38 0 -5 -5 -9 -11 -9 -5 0 -27
-11 -47 -25 -54 -37 -63 -33 -40 22 6 15 13 42 15 58 3 17 9 34 14 40 5 5 9
23 9 40 0 17 4 35 9 41 5 5 11 27 14 49 15 104 28 129 43 83z m-1538 -84 c1
-14 5 -31 9 -37 5 -7 8 -91 8 -187 l0 -175 45 0 45 0 -1 -68 c-1 -43 -8 -76
-18 -92 -9 -14 -13 -25 -9 -25 5 0 2 -4 -5 -8 -24 -16 -99 -14 -116 3 -9 9
-14 21 -10 26 3 5 -7 14 -21 19 -14 5 -24 14 -20 19 3 5 -4 12 -15 16 -28 9
-28 55 0 55 11 0 20 -7 20 -15 0 -8 3 -15 8 -15 4 0 7 14 7 30 0 30 -1 30 -55
30 -52 1 -98 19 -83 33 3 4 -1 7 -10 7 -22 0 -48 58 -44 97 4 32 36 83 65 105
10 7 32 32 51 56 18 23 37 39 42 36 5 -3 8 -2 7 3 -3 9 81 113 91 113 4 0 8
-12 9 -26z m1642 -229 c0 -8 -4 -15 -10 -15 -5 0 -10 -13 -10 -30 0 -23 -4
-30 -20 -30 -15 0 -20 -7 -20 -25 0 -18 -5 -25 -19 -25 -12 0 -26 -13 -35 -32
-16 -31 -16 -31 4 -13 11 10 28 15 39 12 15 -4 20 2 25 34 6 35 9 39 36 39 23
0 30 -4 30 -20 0 -11 5 -20 10 -20 6 0 10 -11 10 -25 0 -18 5 -25 20 -25 25 0
27 -6 34 -98 3 -39 10 -80 15 -90 6 -12 7 -42 0 -86 -7 -55 -6 -71 6 -89 17
-24 21 -147 5 -147 -5 0 -18 12 -27 27 -10 15 -30 39 -44 54 -15 15 -40 44
-55 65 -16 21 -40 50 -54 64 -14 15 -43 49 -65 76 -64 77 -109 128 -122 137
-28 18 -3 134 33 152 11 6 34 20 51 33 17 12 36 22 42 22 6 0 11 5 11 11 0 6
9 9 19 6 12 -3 18 0 15 7 -2 6 11 19 29 28 41 21 47 22 47 3z m-3474 -41 c6
-8 17 -14 24 -14 17 0 70 -52 70 -70 0 -9 14 -24 30 -33 17 -10 30 -23 30 -28
0 -6 5 -7 12 -3 8 5 9 -5 3 -37 -13 -76 -14 -209 -1 -196 7 6 10 23 8 39 -4
24 -1 28 19 28 44 0 70 -42 76 -120 5 -66 4 -70 -16 -70 -17 0 -21 6 -21 35 0
33 -2 35 -35 35 l-35 0 2 -47 c1 -37 2 -40 5 -15 4 26 9 32 29 32 20 0 24 -5
24 -30 0 -16 -4 -30 -10 -30 -5 0 -10 -4 -10 -10 0 -5 11 -10 24 -10 13 0 26
-7 30 -15 6 -17 -3 -47 -17 -56 -5 -4 -9 -19 -9 -34 0 -33 -39 -55 -63 -35
-13 11 -15 9 -16 -11 -1 -13 -1 -30 0 -36 1 -7 -7 -13 -19 -13 -14 0 -20 -7
-20 -23 0 -28 -24 -42 -77 -46 -38 -2 -43 0 -43 18 0 17 6 21 30 21 17 0 30 5
30 10 0 6 -16 10 -35 10 -32 0 -35 -2 -35 -30 0 -26 -8 -34 -31 -32 -4 1 -6
-10 -6 -23 0 -25 18 -38 41 -29 7 3 16 -2 19 -10 4 -9 18 -16 33 -16 16 0 24
-5 21 -12 -3 -10 -39 -13 -136 -13 l-133 0 7 55 c9 70 11 74 36 49 11 -11 24
-17 29 -14 6 4 14 -4 19 -17 9 -20 10 -19 10 14 1 36 -1 38 -38 44 l-39 6 4
82 c1 45 8 121 14 168 6 48 13 106 15 130 15 127 16 128 36 128 10 0 19 -7 19
-15 0 -9 9 -15 25 -15 24 0 25 2 25 69 0 37 -3 89 -6 115 -6 39 -10 46 -29 46
-19 0 -21 5 -19 43 1 23 2 46 3 50 2 13 85 -3 97 -19z m1458 -7 c16 -12 15
-15 -14 -47 -72 -79 -83 -88 -96 -83 -20 8 -17 36 6 53 11 8 20 22 20 32 0 11
7 18 19 18 11 0 23 9 26 20 7 23 15 25 39 7z m25 -135 c-6 -34 -15 -62 -20
-62 -6 0 -21 7 -35 16 -24 16 -24 18 -7 34 10 10 29 31 43 48 14 16 26 29 27
28 2 -1 -2 -30 -8 -64z m-1559 -37 c0 -30 -3 -35 -24 -35 -21 0 -23 4 -21 33
3 40 1 37 25 37 16 0 20 -7 20 -35z m1628 -43 c3 -16 -1 -20 -12 -16 -19 7
-22 48 -3 42 6 -3 13 -14 15 -26z m30 -108 c13 -6 23 -15 23 -18 -3 -20 48
-76 72 -82 16 -3 31 -12 34 -20 3 -8 11 -14 18 -14 7 0 15 -6 17 -12 3 -9 9
-8 22 5 20 20 49 22 68 4 7 -7 25 -18 41 -24 28 -13 37 -32 15 -34 -7 0 -4 -4
7 -8 11 -5 23 -4 26 1 6 10 59 0 59 -11 0 -3 18 -15 40 -25 22 -11 40 -23 40
-28 0 -13 -48 -9 -53 5 -4 8 -8 9 -14 1 -11 -13 -83 -18 -83 -4 0 5 -11 10
-24 10 -19 0 -23 -4 -19 -20 4 -17 0 -20 -25 -20 -17 0 -34 -5 -37 -11 -4 -6
-13 -8 -21 -5 -17 7 -19 -25 -2 -42 9 -9 -13 -12 -100 -13 -216 -2 -203 -3
-172 21 14 11 35 19 47 17 14 -3 20 0 16 10 -3 7 -11 13 -19 13 -15 0 -16 5
-18 80 -1 45 -1 45 45 60 l46 15 -33 30 c-19 17 -34 36 -34 43 0 6 -7 12 -15
12 -9 0 -15 9 -15 24 0 19 -4 23 -19 19 -20 -5 -21 -3 -12 61 0 4 13 0 29 -10
15 -10 37 -23 50 -30z m1769 -111 c32 -37 66 -76 76 -87 9 -11 17 -23 17 -26
0 -4 25 -33 55 -65 51 -53 76 -98 62 -111 -3 -3 -21 -2 -41 1 -26 5 -36 12
-36 26 0 11 5 19 10 19 6 0 10 5 10 10 0 6 -9 10 -21 10 -14 0 -19 5 -16 13 4
10 -5 14 -29 14 -18 0 -31 -4 -28 -9 3 -5 10 -6 15 -3 5 4 9 -3 9 -14 0 -30
-34 -27 -48 4 -6 14 -17 25 -23 25 -13 0 -59 50 -59 63 0 5 -5 5 -10 2 -6 -3
-15 6 -20 20 -14 36 -13 45 5 45 9 0 15 10 15 26 0 16 4 23 12 18 7 -4 8 -3 4
4 -4 7 -14 12 -22 12 -9 0 -14 11 -14 35 0 19 4 35 9 35 5 0 36 -30 68 -67z
m-1243 -88 c6 -16 -10 -20 -38 -9 -24 9 -19 24 8 24 13 0 26 -7 30 -15z m890
-83 c-2 -28 -5 -32 -19 -32 -9 0 -15 9 -15 24 0 17 5 24 18 22 9 -2 17 -8 16
-14z m110 -7 c8 -8 23 -15 33 -15 35 -1 61 -41 59 -94 -2 -52 10 -66 58 -66
14 0 26 -4 26 -8 0 -11 80 -38 98 -34 10 2 12 -7 7 -40 -4 -24 -10 -47 -15
-52 -11 -11 -30 1 -30 20 0 8 -9 14 -19 14 -11 0 -21 4 -23 8 -5 13 -68 23
-68 12 0 -6 -6 -9 -12 -7 -7 1 -14 -7 -16 -19 -2 -18 1 -20 33 -16 19 2 51 1
71 -2 29 -6 35 -11 32 -29 -3 -21 -7 -22 -132 -22 -143 0 -148 2 -124 63 11
29 19 37 40 37 14 1 33 9 43 18 15 16 15 20 2 40 -8 12 -25 23 -37 24 -35 3
-52 26 -57 79 -3 27 -10 54 -14 60 -12 15 -1 44 16 44 8 0 20 -7 29 -15z
m-134 -54 c0 -10 -7 -24 -15 -31 -13 -11 -15 -8 -15 19 0 21 5 31 15 31 8 0
15 -8 15 -19z m62 -71 c4 -40 -4 -48 -31 -31 -12 7 -12 13 0 40 18 41 26 39
31 -9z m-1315 -73 c-2 -7 -28 -14 -58 -17 -47 -4 -54 -8 -57 -27 -3 -19 1 -23
22 -23 14 0 26 -4 26 -10 0 -5 8 -10 19 -10 14 0 18 -6 16 -27 -4 -39 -16 -73
-26 -73 -5 0 -6 -6 -3 -14 6 -16 -31 -40 -46 -31 -6 3 -10 17 -10 31 0 14 4
22 10 19 6 -4 7 1 3 11 -6 15 -7 15 -16 -1 -11 -21 -15 -95 -4 -95 9 0 9 -64
0 -74 -4 -3 -9 -39 -11 -78 -2 -43 -9 -77 -18 -85 -8 -8 -14 -32 -14 -54 0
-37 -2 -39 -30 -39 l-30 0 0 -80 c0 -73 2 -80 20 -80 18 0 20 -7 20 -70 0 -63
-2 -70 -20 -70 -11 0 -20 -4 -20 -10 0 -5 9 -10 20 -10 22 0 25 -12 10 -39 -5
-10 -10 -35 -12 -55 -1 -22 -7 -36 -16 -36 -10 0 -12 -9 -8 -35 5 -31 3 -35
-19 -41 -16 -4 -25 -13 -25 -25 0 -22 -29 -26 -31 -4 -1 8 -2 21 -3 28 -1 6 8
15 19 19 19 6 19 6 -1 7 -20 1 -22 6 -22 81 -1 44 2 79 6 79 27 -4 32 4 32 50
0 40 4 50 19 54 14 3 18 11 14 26 -4 16 -13 21 -39 21 l-34 0 0 -60 c0 -53 -2
-60 -20 -60 -16 0 -20 7 -20 34 0 19 -5 47 -11 63 -6 15 -10 66 -10 112 1 73
-1 87 -20 107 -17 18 -20 30 -15 61 4 21 9 67 12 103 3 36 9 78 15 94 5 16 9
39 9 52 0 16 7 24 22 26 28 4 35 30 14 51 -26 25 -1 167 30 169 5 0 14 2 19 4
30 10 129 23 136 18 5 -3 9 1 9 10 0 20 9 22 85 18 45 -3 65 -8 62 -15z m1317
-53 c4 -9 4 -19 2 -21 -8 -8 -26 8 -26 23 0 19 16 18 24 -2z m596 -21 c0 -20
-5 -23 -39 -23 -39 0 -68 20 -56 40 4 6 26 9 51 8 38 -3 44 -6 44 -25z m120
-29 c14 -27 20 -48 14 -54 -11 -10 -95 17 -106 34 -14 20 -8 36 12 36 11 0 20
6 20 13 0 7 8 13 18 14 12 1 26 -14 42 -43z m-2437 2 c3 -8 4 -22 2 -32 -2
-11 -4 -22 -4 -26 -1 -5 -4 -8 -9 -8 -11 0 -34 58 -27 70 9 15 32 12 38 -4z
m-699 -11 c-4 -8 -15 -15 -25 -15 -12 0 -16 5 -13 15 4 8 15 15 25 15 12 0 16
-5 13 -15z m116 -2 c0 -9 -3 -13 -7 -10 -3 4 -12 2 -20 -5 -7 -6 -17 -8 -21
-4 -7 8 25 36 40 36 4 0 8 -7 8 -17z m118 -6 c2 -10 -1 -17 -6 -17 -22 0 -42
13 -42 26 0 20 44 11 48 -9z m3133 -22 c9 3 24 -1 32 -10 9 -8 22 -15 31 -15
19 0 51 -43 35 -49 -6 -2 -22 3 -35 10 -19 10 -37 10 -74 3 -28 -6 -52 -8 -55
-6 -3 3 -5 27 -5 54 l0 49 27 -20 c14 -12 34 -19 44 -16z m-2751 -2 c12 -15
17 -29 11 -31 -15 -5 -61 28 -61 44 0 23 27 16 50 -13z m-1215 -54 c10 -11 -7
-39 -24 -39 -11 0 -12 -3 -4 -8 7 -4 13 -36 15 -72 3 -56 6 -65 25 -70 23 -5
22 15 15 -301 -2 -50 -7 -70 -22 -87 -11 -12 -20 -24 -20 -28 0 -14 -42 -64
-50 -59 -5 3 -8 23 -7 45 1 45 -1 49 -36 56 -42 7 -53 -30 -32 -108 7 -27 7
-27 -41 -25 l-49 2 0 38 c0 29 4 37 18 37 13 0 16 -6 13 -25 -3 -14 0 -25 5
-25 9 0 14 28 10 64 -2 27 -10 33 -21 16 -5 -8 -12 -12 -15 -8 -9 9 -17 433
-10 527 l7 83 108 -4 c60 -2 111 -6 115 -9z m3214 -65 c38 -8 40 -22 4 -26
-22 -2 -29 -9 -31 -30 -2 -16 1 -28 7 -28 17 0 13 -37 -4 -43 -17 -7 -29 8
-21 28 3 9 -1 15 -9 15 -8 0 -15 8 -15 18 0 10 -7 27 -15 38 -8 12 -11 24 -8
28 8 8 52 8 92 0z m-1949 -14 c0 -5 -4 -10 -9 -10 -6 0 -13 5 -16 10 -3 6 1
10 9 10 9 0 16 -4 16 -10z m1961 -123 c-1 -4 -1 -16 -1 -27 0 -11 -6 -20 -14
-20 -18 0 -29 42 -13 52 14 9 29 6 28 -5z m-3195 -469 c-2 -7 -6 -24 -10 -38
-4 -14 -9 -73 -11 -130 -1 -58 -3 -108 -4 -112 -1 -4 -12 -19 -26 -34 -24 -26
-25 -26 -25 -5 0 11 5 21 10 21 13 0 13 88 -2 165 -11 61 -10 63 18 104 28 39
55 55 50 29z m-136 -379 c0 -12 -75 -82 -86 -80 -5 0 -10 28 -10 60 l-1 60 31
3 c30 4 66 -20 66 -43z m-136 -1 c-4 -6 -8 -23 -9 -37 -1 -14 -3 -31 -3 -37
-3 -15 -69 -50 -78 -41 -4 4 7 28 24 52 18 25 32 49 32 53 0 5 5 13 12 20 13
13 31 5 22 -10z m-4 -133 c0 -14 -3 -25 -7 -26 -5 0 -24 -2 -43 -3 -19 -1 -41
-5 -48 -10 -24 -14 -51 -15 -46 -1 7 17 92 58 104 50 6 -4 10 -1 10 4 0 6 7
11 15 11 9 0 15 -9 15 -25z m3240 5 c0 -6 -7 -25 -16 -42 -9 -17 -21 -81 -28
-142 -6 -61 -15 -110 -20 -109 -5 2 -9 60 -10 130 -1 123 0 129 23 151 25 23
51 29 51 12z m2437 -122 c96 -93 262 -250 365 -348 38 -36 113 -108 168 -160
55 -52 136 -129 180 -170 45 -41 134 -125 198 -187 64 -61 144 -136 177 -167
l59 -55 -29 -10 c-17 -6 -38 -16 -47 -21 -10 -6 -27 -10 -37 -10 -11 0 -23 -4
-26 -10 -3 -5 -16 -10 -29 -10 -12 0 -26 -4 -31 -8 -6 -4 -27 -14 -48 -21 -29
-10 -41 -10 -52 -1 -28 23 -183 -22 -200 -58 -6 -14 -36 -29 -95 -47 -47 -15
-94 -31 -105 -35 -11 -4 -40 -13 -65 -20 -25 -7 -58 -19 -74 -27 -19 -10 -42
-14 -71 -10 -44 7 -73 1 -139 -28 -37 -16 -38 -16 -31 2 12 27 13 105 2 128
-6 11 -21 33 -33 48 -32 38 -30 51 5 44 25 -5 31 -2 37 15 4 13 2 24 -5 26 -6
2 -11 14 -11 27 0 21 -6 23 -66 30 -45 5 -70 3 -78 -5 -8 -8 -7 -10 7 -5 13 6
17 2 17 -19 0 -36 -37 -36 -46 0 -5 21 -11 24 -28 19 -40 -12 -75 -14 -81 -5
-11 18 -35 11 -35 -10 0 -11 4 -20 9 -20 5 0 16 -7 25 -15 11 -11 37 -16 96
-16 70 -1 81 -3 78 -17 -3 -14 -16 -17 -88 -16 -80 1 -113 6 -235 40 -27 8
-81 18 -118 23 -38 5 -74 14 -80 19 -7 5 -20 8 -29 7 -28 -5 -30 11 -3 23 13
6 27 23 31 37 3 14 12 25 20 25 17 0 18 24 2 49 -14 24 1 85 22 89 15 2 40
-39 40 -67 1 -14 2 -14 10 1 7 11 6 34 -2 68 -10 42 -9 53 2 60 10 6 11 17 2
49 -8 32 -7 45 3 55 7 7 15 26 17 42 3 33 34 45 41 17 4 -14 5 -13 6 4 0 13
10 28 21 35 11 7 20 18 20 25 0 7 10 13 21 13 20 0 48 25 49 43 0 4 -11 7 -25
7 -20 0 -25 5 -25 25 0 20 5 25 25 25 21 0 25 5 25 29 0 16 -6 36 -13 43 -19
18 -17 50 2 55 11 3 20 24 28 65 7 34 15 64 20 67 4 3 8 12 9 19 2 29 4 35 11
29 3 -4 12 -2 20 4 7 6 21 9 30 7 15 -4 18 2 20 36 3 69 15 131 27 138 17 12
38 9 30 -4 -5 -7 -3 -8 5 -3 9 5 10 10 2 18 -14 14 -14 57 -1 57 6 0 49 -37
97 -82z m-5857 12 c0 -5 -5 -10 -11 -10 -5 0 -7 5 -4 10 3 6 8 10 11 10 2 0 4
-4 4 -10z m3289 -139 c1 -82 4 -160 7 -174 3 -21 0 -26 -18 -29 -13 -2 -23 -7
-23 -13 0 -5 -4 -15 -8 -22 -4 -6 -2 -13 5 -15 6 -2 12 -12 14 -21 2 -18 -5
-21 -21 -9 -12 8 -95 129 -95 137 0 3 -9 14 -19 24 -17 17 -18 25 -9 53 5 18
11 41 12 52 3 24 72 96 92 96 11 0 14 -8 11 -27 -9 -55 -19 -74 -38 -71 -10 2
-18 -1 -18 -7 0 -9 59 -8 69 2 3 2 5 37 6 77 0 70 7 96 23 96 4 0 9 -67 10
-149z m-374 -157 c16 -30 17 -37 4 -45 -11 -8 -11 -9 4 -7 14 2 23 -12 43 -66
25 -73 30 -116 15 -131 -6 -6 -12 -21 -15 -35 -3 -14 -9 -38 -14 -55 -5 -16
-8 -38 -6 -47 1 -10 -1 -18 -6 -18 -4 0 -10 -18 -14 -40 -3 -23 -10 -39 -15
-36 -4 3 -6 -5 -4 -17 2 -12 -1 -36 -8 -52 -16 -40 -16 -40 -18 -81 0 -21 -5
-33 -11 -29 -6 4 -10 -8 -10 -29 0 -45 -18 -57 -26 -17 -4 17 -10 31 -15 31
-5 0 -9 16 -9 35 0 19 -4 35 -10 35 -5 0 -10 7 -10 16 0 8 -11 40 -26 71 -14
31 -23 62 -20 69 7 19 36 18 36 -2 0 -8 11 -30 25 -48 17 -22 25 -46 25 -72 0
-42 13 -73 24 -56 3 6 2 22 -4 37 -17 44 -12 96 10 115 14 13 20 33 23 81 2
35 5 69 7 74 1 6 2 19 1 31 -1 17 -6 20 -31 16 -16 -2 -61 6 -98 18 l-69 23 3
101 c1 55 2 104 3 108 1 4 11 8 24 8 82 -1 132 9 147 29 20 27 22 27 45 -15z
m-1327 -112 c24 3 27 -1 30 -29 2 -19 -1 -33 -7 -33 -6 0 -11 7 -11 15 0 9 -9
15 -21 15 -11 0 -34 9 -50 21 -35 25 -28 48 7 24 13 -9 37 -14 52 -13z m932
12 c0 -21 -24 -44 -46 -44 -14 0 -23 -4 -20 -9 3 -5 14 -7 25 -4 11 3 21 -2
24 -12 9 -21 -16 -30 -45 -14 -12 7 -36 14 -52 16 -56 6 -47 25 21 43 27 7 52
17 58 21 10 10 35 12 35 3z m-611 -29 c1 -2 1 -8 -3 -13 -8 -14 -64 -2 -70 15
-5 13 0 14 31 8 21 -4 40 -8 42 -10z m-156 -54 c15 -15 -2 -32 -21 -22 -9 5
-25 12 -34 15 -10 3 -18 11 -18 17 0 13 58 5 73 -10z m135 -22 c14 0 22 -5 22
-15 0 -24 -74 -15 -78 10 -3 15 0 17 14 11 11 -4 29 -7 42 -6z m452 -38 c0
-15 -20 -20 -48 -12 -1 1 2 10 8 21 12 23 40 16 40 -9z m140 -32 c0 -22 -9
-23 -47 -7 -36 16 -36 15 -30 25 3 5 22 7 41 5 27 -3 36 -9 36 -23z m626 -46
c-7 -7 -26 7 -26 19 0 6 6 6 15 -2 9 -7 13 -15 11 -17z m-783 5 c10 0 17 -7
17 -18 0 -16 -4 -17 -35 -7 -19 6 -35 17 -35 25 0 10 6 12 18 7 9 -4 25 -7 35
-7z m713 -5 c3 -10 11 -29 16 -43 6 -14 14 -34 19 -45 4 -11 14 -36 22 -55 20
-49 20 -87 0 -94 -13 -5 -15 -16 -10 -56 3 -28 2 -50 -3 -50 -19 0 -40 13 -34
21 3 5 -3 12 -13 15 -10 3 -25 8 -33 11 -18 7 -29 9 -53 11 -20 2 -18 18 19
129 13 39 24 78 24 87 0 9 5 16 10 16 6 0 9 3 9 8 -8 47 15 84 27 45z m-178
-18 c0 -14 -4 -28 -9 -31 -5 -3 -9 -13 -9 -24 0 -19 -19 -30 -50 -30 -32 0
-33 20 -1 49 17 16 31 36 31 45 0 9 8 16 19 16 13 0 19 -7 19 -25z m-384 -28
c4 -16 0 -17 -27 -11 -39 8 -47 12 -47 25 0 5 16 8 34 6 24 -1 36 -8 40 -20z
m256 -53 c0 -23 -29 -36 -31 -14 -1 6 -2 16 -3 23 -3 19 3 27 19 20 8 -3 15
-16 15 -29z m404 21 c3 -8 1 -15 -4 -15 -6 0 -10 7 -10 15 0 8 2 15 4 15 2 0
6 -7 10 -15z m-132 -274 c6 -10 17 -17 23 -15 6 3 19 -2 30 -11 17 -12 18 -16
6 -24 -9 -6 -22 -5 -35 1 -12 6 -28 14 -36 18 -17 8 -26 50 -11 50 6 0 16 -9
23 -19z m1588 -1 c0 -5 -7 -10 -15 -10 -8 0 -15 5 -15 10 0 6 7 10 15 10 8 0
15 -4 15 -10z m-1605 -90 c3 -5 -1 -10 -9 -10 -9 0 -16 5 -16 10 0 6 4 10 9
10 6 0 13 -4 16 -10z m1335 -83 c0 -23 35 -53 58 -49 6 2 12 -5 12 -16 0 -10
6 -24 12 -30 10 -10 8 -14 -9 -18 -12 -3 -23 -14 -26 -23 -5 -21 -37 -24 -37
-3 0 7 9 16 20 19 13 4 20 14 20 30 0 21 -3 23 -22 17 -28 -8 -38 -22 -31 -42
4 -10 0 -13 -13 -10 -21 4 -23 47 -2 59 6 4 2 9 -11 14 -26 8 -29 50 -3 64 26
16 32 13 32 -12z m0 -209 c0 -13 -23 -5 -28 10 -2 7 2 10 12 6 9 -3 16 -11 16
-16z m1183 -105 c-7 -2 -19 -2 -25 0 -7 3 -2 5 12 5 14 0 19 -2 13 -5z m371
-105 c-8 -12 -21 -9 -38 8 -22 22 -20 38 7 49 19 9 23 7 29 -20 3 -16 4 -33 2
-37z m-5920 16 c8 -20 -1 -34 -20 -34 -8 0 -14 10 -14 25 0 28 24 34 34 9z
m5770 -30 c25 -24 19 -36 -16 -32 -25 2 -34 8 -36 26 -4 27 28 31 52 6z m-119
-30 c19 -25 18 -31 -4 -44 -30 -15 -40 -12 -47 15 -3 14 -10 25 -15 25 -5 0
-9 7 -9 15 0 21 57 13 75 -11z m250 -134 c18 -20 18 -21 -1 -34 -17 -13 -22
-12 -46 12 -16 14 -28 29 -28 34 0 17 58 7 75 -12z m-115 -45 c23 -25 23 -25
4 -40 -26 -20 -26 -19 -64 16 -33 33 -31 43 13 47 14 1 33 -8 47 -23z m206
-80 c-21 -16 -32 -13 -21 4 3 6 14 11 23 11 15 -1 15 -2 -2 -15z m381 -77 c-3
-8 -6 -5 -6 6 -1 11 2 17 5 13 3 -3 4 -12 1 -19z m-987 -947 c0 -23 -14 -41
-31 -41 -22 0 -27 35 -6 43 20 9 37 8 37 -2z m-70 -74 c0 -7 -5 -18 -12 -25
-9 -9 -9 -12 0 -12 7 0 12 -9 12 -20 0 -15 -7 -20 -26 -20 -14 0 -23 4 -19 10
3 5 0 19 -7 30 -11 18 -10 23 6 36 25 18 46 18 46 1z m-1261 -343 c3 -4 0 -9
-6 -11 -7 -3 -13 -11 -13 -19 0 -8 -9 -14 -20 -14 -11 0 -20 4 -20 9 0 5 -9
11 -20 14 -11 3 -20 12 -20 21 0 13 9 15 47 11 25 -3 49 -8 52 -11z m609 -75
c2 -12 -4 -16 -20 -14 -13 1 -35 3 -50 4 -17 0 -28 7 -28 15 0 21 94 16 98 -5z"/>
<path d="M4920 7440 c0 -5 7 -10 15 -10 8 0 15 5 15 10 0 6 -7 10 -15 10 -8 0
-15 -4 -15 -10z"/>
<path d="M4350 6280 c0 -11 4 -20 9 -20 5 0 12 -8 14 -17 4 -14 5 -12 6 5 1
16 7 22 23 22 21 0 21 0 2 15 -28 21 -54 19 -54 -5z"/>
<path d="M4400 6205 c0 -8 4 -15 10 -15 5 0 7 7 4 15 -4 8 -8 15 -10 15 -2 0
-4 -7 -4 -15z"/>
<path d="M4477 6113 c-4 -3 -7 -11 -7 -17 0 -6 5 -5 12 2 6 6 9 14 7 17 -3 3
-9 2 -12 -2z"/>
<path d="M4285 6107 c-11 -11 -14 -17 -6 -12 7 4 16 3 20 -3 4 -7 12 -8 21 -2
13 8 13 11 0 24 -13 12 -18 11 -35 -7z"/>
<path d="M4056 5947 c3 -10 9 -15 12 -12 3 3 0 11 -7 18 -10 9 -11 8 -5 -6z"/>
<path d="M6095 3243 c-27 -7 -46 -23 -39 -34 3 -5 10 -7 15 -4 5 4 9 -1 9 -9
0 -9 6 -16 14 -16 20 0 29 17 14 23 -11 3 -11 9 0 26 7 11 11 20 10 20 -2 -1
-12 -4 -23 -6z"/>
<path d="M7057 3238 c-7 -4 5 -8 27 -8 32 0 38 -3 34 -17 -4 -13 1 -18 17 -18
15 0 21 5 17 17 -2 10 3 18 15 20 10 3 -8 6 -40 9 -33 2 -64 1 -70 -3z"/>
<path d="M6625 3001 c-23 -5 -26 -8 -13 -13 9 -4 24 0 35 7 10 8 16 14 13 13
-3 0 -18 -3 -35 -7z"/>
<path d="M3407 7899 c4 -13 8 -18 11 -10 2 7 -1 18 -6 23 -8 8 -9 4 -5 -13z"/>
<path d="M2375 7810 c-3 -5 -1 -10 4 -10 6 0 11 5 11 10 0 6 -2 10 -4 10 -3 0
-8 -4 -11 -10z"/>
<path d="M3544 7713 c-16 -16 -19 -27 -5 -18 5 3 17 -2 25 -11 12 -12 16 -12
17 -2 0 7 2 20 4 29 3 19 -22 21 -41 2z"/>
<path d="M1597 7373 c-4 -3 -7 -20 -7 -36 0 -22 -4 -28 -16 -23 -8 3 -12 2 -9
-4 13 -22 34 -9 41 25 6 36 3 51 -9 38z"/>
<path d="M5293 7372 c-19 -2 -33 -9 -33 -17 0 -17 32 -29 41 -14 4 8 19 9 43
5 23 -4 36 -3 36 4 0 5 -11 10 -24 10 -13 0 -26 3 -28 8 -1 4 -18 6 -35 4z"/>
<path d="M3900 7190 c0 -5 11 -10 25 -10 14 0 25 5 25 10 0 6 -11 10 -25 10
-14 0 -25 -4 -25 -10z"/>
<path d="M4177 7193 c-4 -3 -7 -37 -7 -75 0 -54 3 -68 15 -68 8 0 15 -5 15
-11 0 -5 4 -8 9 -5 4 3 11 33 15 66 4 33 11 60 16 60 6 0 10 9 10 20 0 16 -7
20 -33 20 -19 0 -37 -3 -40 -7z"/>
<path d="M934 7168 c3 -13 5 -29 5 -35 2 -22 41 -15 41 7 0 15 7 20 25 20 14
0 25 5 25 11 0 6 7 8 16 5 8 -3 12 -2 9 4 -3 6 -33 10 -66 10 -56 0 -59 -1
-55 -22z"/>
<path d="M1730 7183 c0 -1 13 -8 29 -16 25 -13 28 -13 24 2 -2 9 -14 16 -29
16 -13 0 -24 -1 -24 -2z"/>
<path d="M738 6998 c2 -10 6 -18 7 -18 1 0 5 8 7 18 3 11 0 19 -7 19 -7 0 -10
-8 -7 -19z"/>
<path d="M4015 6830 c3 -5 8 -10 11 -10 2 0 4 5 4 10 0 6 -5 10 -11 10 -5 0
-7 -4 -4 -10z"/>
<path d="M752 6756 c3 -54 18 -62 18 -11 0 19 0 38 1 42 0 4 -5 9 -11 11 -7 3
-10 -11 -8 -42z"/>
<path d="M5737 6469 c6 -8 13 -25 16 -39 4 -17 5 -15 4 9 -1 21 -8 36 -17 39
-12 4 -13 2 -3 -9z"/>
<path d="M5915 5597 c-6 -7 -8 -47 -5 -97 6 -88 14 -90 25 -7 4 30 2 47 -4 47
-15 0 -14 43 1 58 7 7 8 12 3 12 -6 -1 -14 -6 -20 -13z"/>
<path d="M220 4845 c0 -8 4 -15 10 -15 5 0 7 7 4 15 -4 8 -8 15 -10 15 -2 0
-4 -7 -4 -15z"/>
<path d="M239 4763 c-13 -16 -12 -17 4 -4 9 7 17 15 17 17 0 8 -8 3 -21 -13z"/>
<path d="M6425 4410 c-3 -5 -1 -10 4 -10 6 0 11 5 11 10 0 6 -2 10 -4 10 -3 0
-8 -4 -11 -10z"/>
<path d="M198 4290 c-3 -16 -1 -35 4 -42 5 -9 8 -4 8 13 0 18 6 28 20 32 28 7
25 27 -4 27 -19 0 -25 -6 -28 -30z"/>
<path d="M220 4211 c0 -17 -4 -32 -9 -35 -5 -3 -11 -16 -13 -30 -6 -28 25 -95
36 -77 12 18 24 111 15 111 -5 0 -9 14 -9 30 0 17 -4 30 -10 30 -5 0 -10 -13
-10 -29z"/>
<path d="M10 3691 c0 -45 3 -80 8 -77 8 5 7 144 -2 153 -3 4 -6 -31 -6 -76z"/>
<path d="M8801 3482 c0 -7 -7 -12 -13 -11 -32 4 -56 -2 -61 -15 -4 -11 3 -13
36 -9 50 7 50 7 44 30 -3 10 -5 12 -6 5z"/>
<path d="M8356 3305 c-3 -8 -13 -15 -23 -16 -39 -1 22 -18 70 -18 55 -1 63 14
12 23 -19 4 -35 11 -35 16 0 16 -17 12 -24 -5z"/>
<path d="M7876 3164 c-9 -22 -8 -24 9 -18 8 4 15 12 15 20 0 19 -16 18 -24 -2z"/>
<path d="M730 2221 c0 -12 23 -31 40 -31 12 0 13 2 1 9 -7 5 -11 13 -8 18 3 5
-3 10 -14 10 -10 1 -19 -2 -19 -6z"/>
<path d="M900 2203 c-43 -8 -47 -23 -7 -23 20 0 40 -1 44 -2 4 -2 9 5 11 15 3
17 -1 18 -48 10z"/>
<path d="M6233 1963 c1 -25 -2 -37 -10 -36 -17 4 -4 -28 20 -50 11 -9 23 -14
26 -11 3 4 0 9 -6 11 -7 3 -13 18 -13 34 0 22 5 29 19 29 11 0 22 -6 24 -12 6
-14 7 -10 11 45 3 25 0 27 -35 27 -38 0 -38 0 -36 -37z"/>
<path d="M915 1840 c-6 -10 1 -14 45 -24 l25 -5 -24 20 c-26 21 -37 24 -46 9z"/>
<path d="M1120 1841 c-28 -5 -31 -8 -17 -14 10 -4 35 -7 54 -7 30 0 34 2 23
15 -7 8 -15 14 -19 14 -3 -1 -22 -4 -41 -8z"/>
<path d="M6270 1835 c7 -8 16 -15 21 -15 5 0 6 7 3 15 -4 8 -13 15 -21 15 -13
0 -13 -3 -3 -15z"/>
<path d="M6105 1720 c-4 -17 -13 -30 -21 -30 -9 0 -12 -5 -9 -10 3 -6 -1 -13
-9 -16 -9 -3 -16 -12 -16 -20 0 -10 6 -11 29 -3 28 10 38 31 45 92 4 29 -12
19 -19 -13z"/>
<path d="M1970 1670 c-20 -12 -10 -19 14 -10 11 3 15 9 10 13 -6 3 -16 2 -24
-3z"/>
<path d="M2855 1469 c-16 -6 -14 -8 13 -8 33 -1 41 4 20 12 -7 2 -22 1 -33 -4z"/>
<path d="M3265 1328 c-6 -32 -11 -39 -25 -35 -10 2 -24 1 -31 -4 -9 -6 1 -9
29 -9 38 0 42 2 42 25 0 14 5 25 10 25 15 0 12 27 -4 33 -11 4 -16 -5 -21 -35z"/>
<path d="M3370 1300 c6 -11 20 -20 30 -20 13 0 20 7 20 20 0 16 -7 20 -30 20
-28 0 -30 -2 -20 -20z"/>
<path d="M5898 1296 c-4 -17 -1 -23 9 -20 46 14 46 14 33 29 -18 22 -37 18
-42 -9z"/>
<path d="M5687 1255 c-10 -14 -27 -25 -38 -25 -11 0 -18 -4 -14 -9 3 -5 1 -12
-5 -16 -18 -11 -10 -25 14 -25 13 0 26 -5 28 -11 3 -9 9 -9 25 0 12 6 31 11
42 11 18 0 21 6 21 39 0 35 -2 39 -22 33 -17 -4 -20 -2 -15 11 10 26 -15 20
-36 -8z"/>
<path d="M3828 1153 c-10 -2 -18 -13 -18 -24 0 -25 4 -24 24 6 9 14 15 24 14
24 -2 -1 -11 -3 -20 -6z"/>
<path d="M3959 1152 c-19 -2 -28 -10 -32 -28 -4 -22 -1 -24 32 -25 61 -2 135
2 156 8 16 5 11 9 -20 15 -22 5 -54 8 -72 8 -18 0 -33 5 -35 12 -2 8 -14 12
-29 10z"/>
<path d="M5520 1138 c-11 -10 -20 -22 -20 -25 0 -4 5 -2 12 5 19 19 41 15 35
-7 -4 -16 -1 -18 17 -12 11 5 22 17 24 28 4 29 -41 36 -68 11z"/>
<path d="M4415 930 c7 -11 75 -14 75 -2 0 4 -18 8 -41 10 -26 2 -38 -1 -34 -8z"/>
</g>
</svg>
